<svg version="1.1" xmlns="http://www.w3.org/2000/svg" style="display: block;" viewBox="0 0 2048 2048" width="1024" height="1024" preserveAspectRatio="none">
<path transform="translate(0,0)" fill="rgb(122,193,78)" d="M 722.955 892.101 C 756.163 868.708 737.806 848.914 730.245 817.2 C 721.268 778.947 738.015 737.37 770.061 714.957 C 827.089 675.072 908.401 688.015 948.511 745.321 C 975.698 784.163 973.657 832.725 944.111 869.101 C 926.184 891.172 893.041 902.383 891.618 933.072 C 891.308 942.306 895.647 951.736 902.251 958.077 C 903.328 968.746 919.244 974.087 927.968 976.94 C 951.306 984.572 974.291 991.635 997.837 998.814 C 1013.02 1003.44 1036.8 1007.28 1039.89 1026.39 C 1041.63 1039.48 1033.91 1059.52 1029.8 1072.33 L 1009.86 1135.44 C 1005.4 1149.67 996.122 1172.12 1000.37 1186.05 C 1011.38 1222.18 1049.81 1206.21 1074.76 1206.32 C 1113.38 1206.48 1147.82 1237.48 1158.37 1273.43 C 1165.21 1296.39 1162.57 1321.12 1151.05 1342.11 C 1140.01 1362.03 1119.45 1379.84 1097.4 1386.08 C 1070.81 1393.82 1042.14 1389.02 1019.52 1373.04 C 1001.6 1360.27 986.233 1342.67 961.642 1347.91 C 946.78 1351.08 939.158 1365.02 935.268 1378.48 C 927.129 1406.65 918.36 1434.53 910.009 1462.63 C 906.883 1473.11 904.737 1484.68 899.603 1494.39 C 890.429 1510.72 875.755 1516.64 857.864 1511.36 C 819.331 1499.98 781.291 1485.87 742.812 1474.13 C 727.138 1468.74 714.343 1462.33 710.572 1444.68 C 705.756 1422.13 720.049 1407.9 735.931 1395.07 C 748.081 1385.24 758.346 1376.61 766.72 1363.29 C 795.347 1317.76 776.737 1260.51 732.174 1233.2 C 708.378 1218.67 679.761 1214.28 652.703 1220.98 C 628.978 1226.92 607.68 1242.14 595.319 1263.38 C 575.306 1297.77 581.583 1319.6 591.077 1355.04 C 594.567 1368.07 596.269 1381.69 588.852 1393.82 C 583.818 1402.06 575.296 1406.92 566.02 1408.94 C 557.398 1410.82 548.815 1410.16 540.239 1408.41 C 517.902 1403.87 495.309 1394.35 473.671 1387.09 C 453.947 1380.47 415.552 1370.73 399.493 1360.02 C 388.886 1352.94 382.906 1341.08 381.931 1328.51 C 380.195 1306.13 408.158 1225.74 416.453 1199.11 C 419.809 1188.33 426.23 1173.09 423.401 1161.78 C 416.415 1133.85 376.816 1147.63 356.83 1145.96 C 343.519 1144.84 329.23 1139.05 317.833 1132.19 C 296.844 1119.56 281.051 1097.22 275.378 1073.47 C 269.531 1048.98 273.092 1022.18 286.576 1000.75 C 300.617 978.43 324.607 961.169 350.357 955.379 C 373.925 950.08 400.276 954.422 420.489 967.891 C 428.079 972.948 434.563 979.623 442.363 984.406 C 449.444 988.748 458.529 991.182 466.693 988.75 C 473.576 986.7 478.694 981.533 482.162 975.41 C 487.032 966.812 489.283 956.548 491.9 947.096 C 496.319 931.162 500.824 915.252 505.413 899.367 C 512.273 875.481 513.867 856.273 540.702 848.39 C 551.637 850.827 568.736 857.285 580.116 860.845 C 604.611 868.508 629.185 876.717 653.622 884.592 C 666.946 888.885 683.829 895.679 697.392 897.984 C 706.359 899.579 715.588 897.455 722.955 892.101 z"/>
<path transform="translate(0,0)" fill="rgb(237,200,29)" d="M 1343.18 953.306 C 1380.66 951.576 1412.01 964.834 1432.15 997.99 C 1447.01 1022.45 1446.99 1057.72 1429.76 1080.9 C 1422.86 1090.19 1412.27 1099.02 1408.98 1110.3 C 1406.87 1118.1 1411.21 1130.62 1417.85 1135.49 C 1432.18 1146.03 1451.72 1148.74 1468.3 1154.7 C 1508.53 1168.61 1549.56 1180.32 1589.68 1194.35 C 1594.16 1196.47 1601.07 1201.25 1603.34 1205.67 C 1610.41 1219.53 1607.37 1233.84 1603.19 1247.84 C 1590.79 1289.34 1577.5 1330.53 1564.71 1371.89 C 1562.04 1380.54 1558.87 1395.34 1563.72 1403.47 C 1574.16 1420.94 1601.48 1413.82 1618.33 1419.6 C 1643.18 1427.2 1659.87 1439.28 1673.18 1461.69 C 1686 1483.27 1688.66 1508.1 1682.27 1531.96 C 1676.24 1555.09 1661.12 1574.79 1640.35 1586.6 C 1612.55 1602.53 1574.18 1603.17 1547.52 1583.95 C 1535.09 1574.4 1526.64 1560.04 1510.63 1556 C 1474.03 1546.75 1472.31 1606.08 1461.84 1631.22 C 1452.4 1653.89 1452.02 1689.2 1413.73 1684.03 C 1399.46 1682.1 1388.27 1676.44 1374.69 1672.48 C 1350.93 1664.46 1326.81 1657.08 1303.03 1649.26 C 1284.48 1640.9 1260.56 1650.41 1262.38 1673.46 C 1265.37 1711.28 1249.67 1740.27 1216.27 1759.67 C 1190.75 1774.5 1159.09 1775.75 1129.76 1767.32 C 1095.66 1754.74 1067.05 1731.72 1057.42 1694.88 C 1052.86 1674.33 1053.57 1649.07 1066.81 1631.15 C 1076.23 1618.4 1098.71 1597.04 1076.98 1580.97 C 1070.35 1576.07 1051.81 1571.16 1043.02 1568.32 L 969.943 1544.35 C 956.184 1539.95 939.984 1536.74 927.347 1529.66 C 919.683 1525.36 914.57 1518.96 912.357 1510.39 C 910.655 1503.8 911.661 1497.03 913.084 1490.49 C 915.78 1478.09 947.076 1378.03 951.308 1371.5 C 954.627 1366.38 959.294 1362.75 965.366 1361.64 C 983.262 1358.36 999.439 1375.88 1012.84 1385.17 C 1036.58 1401.62 1062.76 1407.49 1091.24 1402.15 C 1118.35 1397.06 1142.18 1379.88 1157.6 1357.27 C 1173.05 1334.61 1179.05 1307.52 1173.74 1280.55 C 1164.62 1234.3 1127.7 1196.21 1079.58 1192.39 C 1064.42 1191.19 1032.05 1201.07 1020.81 1192.87 C 1016.39 1189.64 1013.3 1184.47 1012.45 1179.08 C 1011.69 1174.27 1012.35 1169.18 1013.42 1164.47 C 1019.12 1139.34 1029.09 1114.06 1036.9 1089.46 C 1041.56 1074.82 1044.52 1059.68 1049.72 1045.17 C 1051.35 1040.65 1053.39 1036.25 1056.34 1032.42 C 1059.74 1028 1065.13 1023.52 1070.92 1023.08 C 1082.94 1022.15 1099.98 1031.29 1111.42 1035.36 C 1135.02 1043.76 1158.96 1051.26 1182.69 1059.3 C 1198.93 1064.8 1215.59 1071.7 1232.29 1075.55 C 1237.51 1076.76 1242.71 1077.41 1248.06 1076.64 C 1282.51 1071.61 1270.58 1039.74 1272.71 1016.66 C 1273.82 1004.66 1278.51 993.509 1285.89 984.023 C 1299.86 966.058 1320.89 955.942 1343.18 953.306 z"/>
<path transform="translate(0,0)" fill="rgb(220,13,3)" d="M 722.955 892.101 L 721.714 892.164 C 695.728 893.302 653.06 873.303 627.103 866.263 C 605.535 860.413 582.336 851.336 560.793 844.924 C 554.855 842.895 547.993 838.465 543.442 834.721 C 538.142 830.523 533.43 818.588 534.454 812.062 C 540.429 774.087 556.591 737.003 566.392 699.645 C 570.475 684.08 580.862 664.313 567.674 650.343 C 555.105 637.03 538.573 643.95 522.972 645.712 C 497.718 648.416 474.982 640.493 457.092 622.28 C 437.565 602.402 430.683 582.934 429.713 555.525 C 427.204 484.655 506.586 429.357 571.171 460.688 C 589.947 469.797 601.143 492.983 624.58 488.81 C 636.843 486.975 642.169 480.99 646.475 469.123 C 652.837 451.588 657.849 433.109 663.23 415.182 L 691.809 320.881 C 695.821 307.583 698.805 289.314 706.791 277.899 C 714.134 267.403 724.772 260.947 737.728 260.325 C 743.999 260.025 751.44 262.302 757.41 264.138 C 782.813 271.95 807.999 282.188 833.119 291.037 C 853.07 298.065 874.62 303.93 893.843 312.573 C 899.876 315.286 905.541 318.679 910.219 323.413 C 915.55 328.807 920.303 335.917 920.117 343.793 C 919.797 357.341 909.829 367.336 900.424 375.797 C 879.837 394.317 861.328 412.908 859.679 442.294 C 858.391 465.257 868.591 488.981 883.915 505.752 C 901.657 525.17 929.788 539.112 956.231 540.146 C 980.75 541.104 1004.96 531.063 1022.79 514.497 C 1037.5 500.839 1048.27 481.934 1049.23 461.552 C 1050.4 436.803 1025.25 402.401 1046.42 381.449 C 1053.49 374.449 1064.14 370.445 1074.05 370.745 C 1085.06 371.078 1200.52 412.687 1217.63 420.46 C 1223.05 422.925 1228.62 425.75 1232.58 430.311 C 1238.58 437.213 1242.42 447.138 1241.59 456.34 C 1240.35 470.248 1232.87 485.487 1228.61 498.89 L 1194.41 607.721 C 1188.07 628.096 1179.89 650.544 1176.95 671.3 C 1173.63 694.78 1193.15 710.688 1214.84 711.986 C 1224.67 712.574 1235.58 709.214 1245.37 708.353 C 1267.44 705.855 1292.37 718.105 1306.99 734.265 C 1322.17 751.131 1329.84 773.45 1328.23 796.089 C 1326.46 824.209 1310.49 852.102 1286.73 867.399 C 1261.45 883.796 1224.44 885.579 1197.68 871.883 C 1178.94 862.289 1164.7 841.581 1142.73 838.444 C 1102.97 832.767 1096.17 876.584 1088.01 904.171 C 1082.65 921.976 1077.19 939.751 1071.64 957.496 C 1068.65 967.314 1066.39 978.718 1060.79 987.386 C 1055.82 995.092 1046.27 1002.06 1036.72 1001.67 C 1027.2 1001.29 916.975 964.236 902.251 958.077 C 895.647 951.736 891.308 942.306 891.618 933.072 C 893.041 902.383 926.184 891.172 944.111 869.101 C 973.657 832.725 975.698 784.163 948.511 745.321 C 908.401 688.015 827.089 675.072 770.061 714.957 C 738.015 737.37 721.268 778.947 730.245 817.2 C 737.806 848.914 756.163 868.708 722.955 892.101 z"/>
<path transform="translate(0,0)" fill="rgb(44,146,214)" d="M 1531.45 344.447 C 1535.92 344.88 1541.02 344.391 1545.91 344.844 C 1594.56 349.353 1652.23 378.885 1668.89 427.616 C 1679.12 457.556 1674.43 495.959 1650.69 518.323 C 1639.34 529.013 1627.92 532.818 1620.96 547.696 C 1623.19 574.971 1638.31 575.812 1661.4 583.748 L 1715.46 602.131 C 1733.06 608.004 1752.74 612.702 1768.4 622.581 C 1799.46 642.182 1784.42 672.482 1775.72 699.507 L 1757.85 755.235 C 1748.66 783.676 1740.3 812.383 1730.87 840.738 C 1726.09 855.105 1715.86 867.804 1700.05 869.782 C 1675.38 872.869 1663.7 854.993 1646.82 841.419 C 1629.88 827.789 1608.4 821.819 1586.75 824.518 C 1562.33 827.615 1540.18 840.367 1525.23 859.923 C 1510.63 879.314 1504.44 903.76 1508.05 927.763 C 1511.81 953.518 1526.13 974.743 1546.42 989.812 C 1571.51 1008.43 1593.17 1007.78 1622.02 1001.08 C 1650.62 994.426 1672.69 1020.25 1663.57 1049.12 C 1651.55 1087.91 1639.5 1126.81 1626.67 1165.34 C 1622.73 1177.17 1609.53 1188.89 1596.54 1184.43 C 1544.36 1166.52 1491.77 1149.79 1439.43 1132.39 C 1435.38 1131.04 1428.12 1127.8 1424.97 1125.09 C 1415.44 1106.68 1428.7 1106.47 1437.02 1095.55 C 1464.62 1059.29 1462.17 1019.11 1438.62 982.596 C 1434.51 977.465 1430.16 972.336 1425.33 967.865 C 1404.07 948.152 1375.72 937.909 1346.76 939.481 C 1301.02 941.523 1259.6 976.738 1257.6 1023.68 C 1256.92 1039.49 1267.95 1046.34 1254.05 1061.28 L 1253.11 1062.29 C 1237.72 1067.94 1228.22 1061.87 1213.52 1057.01 L 1172.84 1043.67 L 1117.96 1025.43 C 1106.48 1021.6 1093.84 1018.2 1083.18 1012.5 C 1078.14 1009.8 1074.85 1003.62 1073.65 998.233 C 1072.85 994.695 1072.99 991.857 1073.73 988.333 C 1076.48 975.313 1109.39 870.327 1113.93 863.214 C 1117.73 857.271 1124.22 853.176 1131.1 851.848 C 1151.48 847.914 1169.77 870.211 1185.2 880.162 C 1207.24 894.379 1239.38 897.432 1264.6 891.865 C 1290.7 886.102 1312.25 868.497 1326.31 846.166 C 1341.14 822.703 1346.05 794.306 1339.95 767.225 C 1331.1 728.849 1296.92 698.773 1257.43 694.758 C 1238.87 692.872 1214.85 703.496 1198.93 694.056 C 1186.42 686.638 1187.14 670.572 1190.74 658.121 C 1195.41 641.97 1200.77 625.386 1205.92 609.056 L 1228.17 537.414 C 1235.53 513.86 1244.98 477.226 1254.3 454.036 C 1256.52 448.526 1274.34 442.859 1280.45 443.558 C 1286.51 444.251 1295.08 444.571 1301.16 446.927 C 1335.39 458.168 1368.95 470.907 1402.83 483.265 C 1418.47 488.967 1443.45 501.833 1456.52 484.717 C 1470.46 466.102 1454.52 445.691 1452.23 426.463 C 1446.15 375.501 1485.81 349.324 1531.45 344.447 z"/>
</svg>